<svg id="Layer_1" data-name="Layer 1" xmlns="http://www.w3.org/2000/svg" width="16" height="16" viewBox="0 0 512 512"><defs><style>.cls-1{fill:#d9e4e8;}.cls-1,.cls-2{fill-rule:evenodd;}.cls-2{fill:#79d3d3;}.cls-3{opacity:0.14;}.cls-4{fill:#17292d;}.cls-5{fill:#141f38;}</style></defs><path class="cls-1" fill-rule="nonzero" d="M448,166.4H359.21a115.23,115.23,0,0,1-206.43,0H64a51.26,51.26,0,0,0-51.2,51.2V448A51.26,51.26,0,0,0,64,499.2H448A51.26,51.26,0,0,0,499.2,448V217.6A51.26,51.26,0,0,0,448,166.4Z"/><path class="cls-2" fill-rule="nonzero" d="M256,217.6a102.4,102.4,0,1,1,102.4-102.4A102.52,102.52,0,0,1,256,217.6Z"/><g class="cls-3"><path class="cls-4" d="M19.31,171.94A63.78,63.78,0,0,0,0,217.6v9.24L217.6,384l12.14-12.14Z"/></g><g class="cls-3"><path class="cls-4" fill-rule="nonzero" d="M492.69,171.94,282.26,371.86,294.4,384,512,226.84V217.6A63.79,63.79,0,0,0,492.69,171.94Z"/></g><path class="cls-5" fill-rule="nonzero" d="M263.65,129.63c0-4.05-2.28-6.12-6.84-6.12h-6.33c-3.32,0-4.36-1.15-4.36-4.36v-8.61c0-3.32,1-4.46,4.36-4.46H255c4.67,0,7.06-1.87,7.06-5.71s-2.39-5.7-7.06-5.7c-5.5,0-7.78,1.77-9.76,6.74-1.14,3.22-2.59,3.94-5.6,2.81l-10.17-3.63c-3-.93-3.94-2.6-2.8-5.6,4.57-12.14,14.74-18.16,30.62-18.16,8.19,0,14.53,2,19,5.81S283,91.74,283,98.28a17.09,17.09,0,0,1-8.09,15.15q10.27,5.44,10.27,17.43c0,14.53-9.34,22.73-28,22.73-16,0-26.16-6-30.62-18.17q-1.56-4.2,2.8-5.6l10.17-3.63c3.22-1.15,4.36-.52,5.61,2.8,1.66,4.46,5.19,6.75,10.48,6.75S263.65,133.67,263.65,129.63ZM512,217.6V448a64.19,64.19,0,0,1-64,64H64A64.19,64.19,0,0,1,0,448V217.6a64.19,64.19,0,0,1,64-64h83.36a115.2,115.2,0,1,1,217.27,0H448A64.19,64.19,0,0,1,512,217.6ZM482.64,201l-149,149L481.68,466.42A38.16,38.16,0,0,0,486.4,448V217.6A38.17,38.17,0,0,0,482.64,201ZM166.39,115.2A89.6,89.6,0,1,0,256,25.6,89.7,89.7,0,0,0,166.39,115.2ZM64,179.2A38.17,38.17,0,0,0,47.45,183L219.79,355.29a51.25,51.25,0,0,0,72.41,0L464.54,183A38.17,38.17,0,0,0,448,179.2H351.79a115.22,115.22,0,0,1-191.59,0ZM178.38,350.08l-149-149A38.17,38.17,0,0,0,25.6,217.6V448a38.16,38.16,0,0,0,4.71,18.42ZM448,486.4a38.18,38.18,0,0,0,14.2-2.73L315.38,368.31l-5.09,5.09a76.89,76.89,0,0,1-108.61,0l-5.08-5.08L49.79,483.66A38.18,38.18,0,0,0,64,486.4Z"/></svg>