<?xml version="1.0" encoding="iso-8859-1"?>
<!-- Generator: Adobe Illustrator 16.0.0, SVG Export Plug-In . SVG Version: 6.00 Build 0)  -->
<!DOCTYPE svg PUBLIC "-//W3C//DTD SVG 1.1//EN" "http://www.w3.org/Graphics/SVG/1.1/DTD/svg11.dtd">
<svg version="1.1" id="Capa_1" xmlns="http://www.w3.org/2000/svg" xmlns:xlink="http://www.w3.org/1999/xlink" x="0px" y="0px"
	 width="439.814px" height="439.814px" viewBox="0 0 439.814 439.814" style="enable-background:new 0 0 439.814 439.814;"
	 xml:space="preserve">
<path d="m88 32h-8a8.009 8.009 0 0 0 -8 8v32h16z"/><path d="m136 96a24.027 24.027 0 0 1 -24 24h-8v32h8a24 24 0 0 1 0 48h-8v32h8a24 24 0 0 1 0 48h-8v32h8a24 24 0 0 1 0 48h-8v32h8a24 24 0 0 1 0 48h-8v40h320v-448h-320v40h8a24.027 24.027 0 0 1 24 24zm24-40h224a8 8 0 0 1 0 16h-224a8 8 0 0 1 0-16zm0 32h224a8 8 0 0 1 0 16h-224a8 8 0 0 1 0-16zm0 32h224a8 8 0 0 1 0 16h-224a8 8 0 0 1 0-16zm0 32h224a8 8 0 0 1 0 16h-224a8 8 0 0 1 0-16zm0 32h224a8 8 0 0 1 0 16h-224a8 8 0 0 1 0-16zm0 32h224a8 8 0 0 1 0 16h-224a8 8 0 0 1 0-16zm0 32h224a8 8 0 0 1 0 16h-224a8 8 0 0 1 0-16zm0 32h224a8 8 0 0 1 0 16h-224a8 8 0 0 1 0-16zm0 32h224a8 8 0 0 1 0 16h-224a8 8 0 0 1 0-16zm0 32h224a8 8 0 0 1 0 16h-224a8 8 0 0 1 0-16zm0 32h224a8 8 0 0 1 0 16h-224a8 8 0 0 1 0-16zm0 32h224a8 8 0 0 1 0 16h-224a8 8 0 0 1 0-16zm0 32h224a8 8 0 0 1 0 16h-224a8 8 0 0 1 0-16z"/><path d="m72 120h16v32h-16z"/><path d="m64 104h48a8 8 0 0 0 0-16h-48a8 8 0 0 0 0 16z"/><path d="m456 164.944-16-8v86.112l16-8z"/><path d="m456 52.944-16-8v86.112l16-8z"/><path d="m456 276.944-16-8v86.112l16-8z"/><path d="m72 472a8.009 8.009 0 0 0 8 8h8v-40h-16z"/><path d="m64 184h48a8 8 0 0 0 0-16h-48a8 8 0 0 0 0 16z"/><path d="m456 388.944-16-8v86.112l16-8z"/><path d="m72 200h16v32h-16z"/><path d="m72 360h16v32h-16z"/><path d="m64 344h48a8 8 0 0 0 0-16h-48a8 8 0 0 0 0 16z"/><path d="m64 264h48a8 8 0 0 0 0-16h-48a8 8 0 0 0 0 16z"/><path d="m72 280h16v32h-16z"/><path d="m64 424h48a8 8 0 0 0 0-16h-48a8 8 0 0 0 0 16z"/></svg>